<svg xmlns="http://www.w3.org/2000/svg" width="200" height="200" viewBox="0 0 200 200">
<defs><radialGradient id="tg-rare" cx="50%" cy="50%" r="50%"><stop offset="0%" stop-color="#5BC0BE" stop-opacity=".55"></stop><stop offset="60%" stop-color="#5BC0BE" stop-opacity=".22"></stop><stop offset="100%" stop-color="#5BC0BE" stop-opacity="0"></stop></radialGradient></defs>
<circle cx="100" cy="100" r="86" fill="url(#tg-rare)"></circle>

<g transform="rotate(45 100 100)"><path fill="#1D2748" transform="translate(52,52) scale(4)" d="M21,16v-2l-8-5V3.5C13,2.67 12.33,2 11.5,2S10,2.67 10,3.5V9l-8,5v2l8-2.5V19l-2,1.5V22l3.5-1 3.5,1v-1.5L13,19v-5.5L21,16z"></path></g>
<rect fill="#5BC0BE" x="52" y="122" width="18" height="6" rx="3" transform="rotate(-18 61 125)"></rect>
<rect fill="#5BC0BE" x="62" y="138" width="26" height="6" rx="3" transform="rotate(-18 75 141)"></rect>
</svg>