<svg xmlns="http://www.w3.org/2000/svg" width="200" height="200" viewBox="0 0 200 200">
<defs>
<radialGradient id="face" cx="38%" cy="28%" r="90%">
<stop offset="0%" stop-color="#2E3B66"></stop><stop offset="55%" stop-color="#1D2748"></stop><stop offset="100%" stop-color="#10162C"></stop>
</radialGradient>
<linearGradient id="rim" x1="0" y1="0" x2="0" y2="1">
<stop offset="0%" stop-color="#3A4977"></stop><stop offset="100%" stop-color="#0C1122"></stop>
</linearGradient>
<linearGradient id="gloss" x1="0" y1="0" x2="0" y2="1">
<stop offset="0%" stop-color="#FFFFFF" stop-opacity=".34"></stop><stop offset="100%" stop-color="#FFFFFF" stop-opacity="0"></stop>
</linearGradient>
<filter id="soft" x="-25%" y="-25%" width="150%" height="160%">
<feDropShadow dx="0" dy="6" stdDeviation="7" flood-color="#05070F" flood-opacity=".55"></feDropShadow>
</filter>
<clipPath id="faceclip"><circle cx="100" cy="98" r="86"></circle></clipPath>
</defs>
<g filter="url(#soft)">
<circle cx="100" cy="102" r="90" fill="url(#rim)"></circle>
<circle cx="100" cy="98" r="86" fill="url(#face)"></circle>
</g>
<circle cx="100" cy="98" r="79" fill="none" stroke="#FFFFFF" stroke-opacity=".07" stroke-width="2"></circle>
<g clip-path="url(#faceclip)">
<g opacity=".45" transform="translate(0,3.5)">
<rect fill="#080D1E" x="64" y="102" width="72" height="36" rx="4"></rect>
<rect fill="#1D2748" x="74" y="112" width="52" height="18" rx="4"></rect>
<path fill="#080D1E" d="M60,82 L140,82 L148,102 L52,102 Z"></path>
<circle fill="#080D1E" cx="60" cy="102" r="8"></circle>
<circle fill="#080D1E" cx="76" cy="102" r="8"></circle>
<circle fill="#080D1E" cx="92" cy="102" r="8"></circle>
<circle fill="#080D1E" cx="108" cy="102" r="8"></circle>
<circle fill="#080D1E" cx="124" cy="102" r="8"></circle>
<circle fill="#080D1E" cx="140" cy="102" r="8"></circle></g>

<rect fill="#F4EFE6" x="64" y="102" width="72" height="36" rx="4"></rect>
<rect fill="#1D2748" x="74" y="112" width="52" height="18" rx="4"></rect>
<path fill="#F4EFE6" d="M60,82 L140,82 L148,102 L52,102 Z"></path>
<circle fill="#F4EFE6" cx="60" cy="102" r="8"></circle>
<circle fill="#E0A458" cx="76" cy="102" r="8"></circle>
<circle fill="#F4EFE6" cx="92" cy="102" r="8"></circle>
<circle fill="#E0A458" cx="108" cy="102" r="8"></circle>
<circle fill="#F4EFE6" cx="124" cy="102" r="8"></circle>
<circle fill="#E0A458" cx="140" cy="102" r="8"></circle>
<ellipse cx="100" cy="48" rx="58" ry="22" fill="url(#gloss)"></ellipse>
</g>
</svg>