<svg xmlns="http://www.w3.org/2000/svg" width="200" height="200" viewBox="0 0 200 200">
<defs>
<radialGradient id="face" cx="38%" cy="28%" r="90%">
<stop offset="0%" stop-color="#2E3B66"></stop><stop offset="55%" stop-color="#1D2748"></stop><stop offset="100%" stop-color="#10162C"></stop>
</radialGradient>
<linearGradient id="rim" x1="0" y1="0" x2="0" y2="1">
<stop offset="0%" stop-color="#3A4977"></stop><stop offset="100%" stop-color="#0C1122"></stop>
</linearGradient>
<linearGradient id="gloss" x1="0" y1="0" x2="0" y2="1">
<stop offset="0%" stop-color="#FFFFFF" stop-opacity=".34"></stop><stop offset="100%" stop-color="#FFFFFF" stop-opacity="0"></stop>
</linearGradient>
<filter id="soft" x="-25%" y="-25%" width="150%" height="160%">
<feDropShadow dx="0" dy="6" stdDeviation="7" flood-color="#05070F" flood-opacity=".55"></feDropShadow>
</filter>
<clipPath id="faceclip"><circle cx="100" cy="98" r="86"></circle></clipPath>
</defs>
<g filter="url(#soft)">
<circle cx="100" cy="102" r="90" fill="url(#rim)"></circle>
<circle cx="100" cy="98" r="86" fill="url(#face)"></circle>
</g>
<circle cx="100" cy="98" r="79" fill="none" stroke="#FFFFFF" stroke-opacity=".07" stroke-width="2"></circle>
<g clip-path="url(#faceclip)">
<g opacity=".45" transform="translate(0,3.5)">
<g transform="rotate(45 100 100)"><path fill="#080D1E" transform="translate(52,52) scale(4)" d="M21,16v-2l-8-5V3.5C13,2.67 12.33,2 11.5,2S10,2.67 10,3.5V9l-8,5v2l8-2.5V19l-2,1.5V22l3.5-1 3.5,1v-1.5L13,19v-5.5L21,16z"></path></g>
<rect fill="#080D1E" x="56" y="124" width="16" height="4.5" rx="2.25" transform="rotate(-18 64 126)"></rect>
<rect fill="#080D1E" x="66" y="138" width="22" height="4.5" rx="2.25" transform="rotate(-18 77 140)"></rect></g>

<g transform="rotate(45 100 100)"><path fill="#F4EFE6" transform="translate(52,52) scale(4)" d="M21,16v-2l-8-5V3.5C13,2.67 12.33,2 11.5,2S10,2.67 10,3.5V9l-8,5v2l8-2.5V19l-2,1.5V22l3.5-1 3.5,1v-1.5L13,19v-5.5L21,16z"></path></g>
<rect fill="#5BC0BE" x="56" y="124" width="16" height="4.5" rx="2.25" transform="rotate(-18 64 126)"></rect>
<rect fill="#5BC0BE" x="66" y="138" width="22" height="4.5" rx="2.25" transform="rotate(-18 77 140)"></rect>
<ellipse cx="100" cy="48" rx="58" ry="22" fill="url(#gloss)"></ellipse>
</g>
</svg>