<svg xmlns="http://www.w3.org/2000/svg" width="200" height="200" viewBox="0 0 200 200">
<defs>
<radialGradient id="face" cx="38%" cy="28%" r="90%">
<stop offset="0%" stop-color="#2E3B66"></stop><stop offset="55%" stop-color="#1D2748"></stop><stop offset="100%" stop-color="#10162C"></stop>
</radialGradient>
<linearGradient id="rim" x1="0" y1="0" x2="0" y2="1">
<stop offset="0%" stop-color="#3A4977"></stop><stop offset="100%" stop-color="#0C1122"></stop>
</linearGradient>
<linearGradient id="gloss" x1="0" y1="0" x2="0" y2="1">
<stop offset="0%" stop-color="#FFFFFF" stop-opacity=".34"></stop><stop offset="100%" stop-color="#FFFFFF" stop-opacity="0"></stop>
</linearGradient>
<filter id="soft" x="-25%" y="-25%" width="150%" height="160%">
<feDropShadow dx="0" dy="6" stdDeviation="7" flood-color="#05070F" flood-opacity=".55"></feDropShadow>
</filter>
<clipPath id="faceclip"><circle cx="100" cy="98" r="86"></circle></clipPath>
</defs>
<g filter="url(#soft)">
<circle cx="100" cy="102" r="90" fill="url(#rim)"></circle>
<circle cx="100" cy="98" r="86" fill="url(#face)"></circle>
</g>
<circle cx="100" cy="98" r="79" fill="none" stroke="#FFFFFF" stroke-opacity=".07" stroke-width="2"></circle>
<g clip-path="url(#faceclip)">
<g opacity=".45" transform="translate(0,3.5)">
<circle fill="none" stroke="#080D1E" stroke-width="6" cx="100" cy="66" r="9"></circle>
<rect fill="#080D1E" x="97" y="74" width="6" height="48" rx="3"></rect>
<rect fill="#080D1E" x="80" y="88" width="40" height="6" rx="3"></rect>
<path fill="#080D1E" d="M100,126 Q74,124 64,100 L77,97 Q84,112 100,114 Q116,112 123,97 L136,100 Q126,124 100,126 Z"></path>
<path fill="none" stroke="#080D1E" stroke-width="4" stroke-linecap="round" d="M62,140 Q72,134 82,140 T102,140 T122,140 T142,140"></path></g>

<circle fill="none" stroke="#F4EFE6" stroke-width="6" cx="100" cy="66" r="9"></circle>
<rect fill="#F4EFE6" x="97" y="74" width="6" height="48" rx="3"></rect>
<rect fill="#F4EFE6" x="80" y="88" width="40" height="6" rx="3"></rect>
<path fill="#F4EFE6" d="M100,126 Q74,124 64,100 L77,97 Q84,112 100,114 Q116,112 123,97 L136,100 Q126,124 100,126 Z"></path>
<path fill="none" stroke="#5BC0BE" stroke-width="4" stroke-linecap="round" d="M62,140 Q72,134 82,140 T102,140 T122,140 T142,140"></path>
<ellipse cx="100" cy="48" rx="58" ry="22" fill="url(#gloss)"></ellipse>
</g>
</svg>