<svg xmlns="http://www.w3.org/2000/svg" width="200" height="200" viewBox="0 0 200 200">
<defs>
<radialGradient id="face" cx="38%" cy="28%" r="90%">
<stop offset="0%" stop-color="#2E3B66"></stop><stop offset="55%" stop-color="#1D2748"></stop><stop offset="100%" stop-color="#10162C"></stop>
</radialGradient>
<linearGradient id="rim" x1="0" y1="0" x2="0" y2="1">
<stop offset="0%" stop-color="#3A4977"></stop><stop offset="100%" stop-color="#0C1122"></stop>
</linearGradient>
<linearGradient id="gloss" x1="0" y1="0" x2="0" y2="1">
<stop offset="0%" stop-color="#FFFFFF" stop-opacity=".34"></stop><stop offset="100%" stop-color="#FFFFFF" stop-opacity="0"></stop>
</linearGradient>
<filter id="soft" x="-25%" y="-25%" width="150%" height="160%">
<feDropShadow dx="0" dy="6" stdDeviation="7" flood-color="#05070F" flood-opacity=".55"></feDropShadow>
</filter>
<clipPath id="faceclip"><circle cx="100" cy="98" r="86"></circle></clipPath>
</defs>
<g filter="url(#soft)">
<circle cx="100" cy="102" r="90" fill="url(#rim)"></circle>
<circle cx="100" cy="98" r="86" fill="url(#face)"></circle>
</g>
<circle cx="100" cy="98" r="79" fill="none" stroke="#FFFFFF" stroke-opacity=".07" stroke-width="2"></circle>
<g clip-path="url(#faceclip)">
<g opacity=".45" transform="translate(0,3.5)">
<path fill="#080D1E" d="M74,74 L60,98 L88,98 Z"></path>
<path fill="#080D1E" d="M74,86 L58,114 L90,114 Z"></path>
<rect fill="#080D1E" x="71" y="114" width="6" height="10"></rect>
<path fill="#080D1E" d="M130,78 L116,102 L144,102 Z"></path>
<path fill="#080D1E" d="M130,90 L114,118 L146,118 Z"></path>
<rect fill="#080D1E" x="127" y="118" width="6" height="9"></rect>
<path fill="#080D1E" d="M101,58 L80,96 L122,96 Z"></path>
<path fill="#080D1E" d="M101,78 L76,122 L126,122 Z"></path>
<rect fill="#080D1E" x="97" y="122" width="8" height="14"></rect>
<rect fill="#080D1E" x="60" y="136" width="80" height="6" rx="3"></rect></g>

<path fill="#F4EFE6" d="M74,74 L60,98 L88,98 Z"></path>
<path fill="#F4EFE6" d="M74,86 L58,114 L90,114 Z"></path>
<rect fill="#F4EFE6" x="71" y="114" width="6" height="10"></rect>
<path fill="#C8F560" d="M130,78 L116,102 L144,102 Z"></path>
<path fill="#C8F560" d="M130,90 L114,118 L146,118 Z"></path>
<rect fill="#C8F560" x="127" y="118" width="6" height="9"></rect>
<path fill="#F4EFE6" d="M101,58 L80,96 L122,96 Z"></path>
<path fill="#F4EFE6" d="M101,78 L76,122 L126,122 Z"></path>
<rect fill="#F4EFE6" x="97" y="122" width="8" height="14"></rect>
<rect fill="#F4EFE6" x="60" y="136" width="80" height="6" rx="3"></rect>
<ellipse cx="100" cy="48" rx="58" ry="22" fill="url(#gloss)"></ellipse>
</g>
</svg>