<svg xmlns="http://www.w3.org/2000/svg" width="200" height="200" viewBox="0 0 200 200">
<defs>
<radialGradient id="face" cx="38%" cy="28%" r="90%">
<stop offset="0%" stop-color="#2E3B66"></stop><stop offset="55%" stop-color="#1D2748"></stop><stop offset="100%" stop-color="#10162C"></stop>
</radialGradient>
<linearGradient id="rim" x1="0" y1="0" x2="0" y2="1">
<stop offset="0%" stop-color="#3A4977"></stop><stop offset="100%" stop-color="#0C1122"></stop>
</linearGradient>
<linearGradient id="gloss" x1="0" y1="0" x2="0" y2="1">
<stop offset="0%" stop-color="#FFFFFF" stop-opacity=".34"></stop><stop offset="100%" stop-color="#FFFFFF" stop-opacity="0"></stop>
</linearGradient>
<filter id="soft" x="-25%" y="-25%" width="150%" height="160%">
<feDropShadow dx="0" dy="6" stdDeviation="7" flood-color="#05070F" flood-opacity=".55"></feDropShadow>
</filter>
<clipPath id="faceclip"><circle cx="100" cy="98" r="86"></circle></clipPath>
</defs>
<g filter="url(#soft)">
<circle cx="100" cy="102" r="90" fill="url(#rim)"></circle>
<circle cx="100" cy="98" r="86" fill="url(#face)"></circle>
</g>
<circle cx="100" cy="98" r="79" fill="none" stroke="#FFFFFF" stroke-opacity=".07" stroke-width="2"></circle>
<g clip-path="url(#faceclip)">
<g opacity=".45" transform="translate(0,3.5)">
<circle fill="#080D1E" cx="100" cy="52" r="4"></circle>
<rect fill="#080D1E" x="97.5" y="54" width="5" height="16" rx="2.5"></rect>
<path fill="#080D1E" d="M91,86 L109,86 L116,140 L84,140 Z"></path>
<ellipse fill="#080D1E" cx="100" cy="78" rx="21" ry="10"></ellipse>
<rect fill="#1D2748" x="86" y="75" width="28" height="5" rx="2.5"></rect>
<rect fill="#1D2748" x="96" y="102" width="8" height="6" rx="2"></rect></g>

<circle fill="#E0A458" cx="100" cy="52" r="4"></circle>
<rect fill="#F4EFE6" x="97.5" y="54" width="5" height="16" rx="2.5"></rect>
<path fill="#F4EFE6" d="M91,86 L109,86 L116,140 L84,140 Z"></path>
<ellipse fill="#F4EFE6" cx="100" cy="78" rx="21" ry="10"></ellipse>
<rect fill="#1D2748" x="86" y="75" width="28" height="5" rx="2.5"></rect>
<rect fill="#1D2748" x="96" y="102" width="8" height="6" rx="2"></rect>
<ellipse cx="100" cy="48" rx="58" ry="22" fill="url(#gloss)"></ellipse>
</g>
</svg>