<svg xmlns="http://www.w3.org/2000/svg" width="200" height="200" viewBox="0 0 200 200">
<defs>
<radialGradient id="face" cx="38%" cy="28%" r="90%">
<stop offset="0%" stop-color="#2E3B66"></stop><stop offset="55%" stop-color="#1D2748"></stop><stop offset="100%" stop-color="#10162C"></stop>
</radialGradient>
<linearGradient id="rim" x1="0" y1="0" x2="0" y2="1">
<stop offset="0%" stop-color="#3A4977"></stop><stop offset="100%" stop-color="#0C1122"></stop>
</linearGradient>
<linearGradient id="gloss" x1="0" y1="0" x2="0" y2="1">
<stop offset="0%" stop-color="#FFFFFF" stop-opacity=".34"></stop><stop offset="100%" stop-color="#FFFFFF" stop-opacity="0"></stop>
</linearGradient>
<filter id="soft" x="-25%" y="-25%" width="150%" height="160%">
<feDropShadow dx="0" dy="6" stdDeviation="7" flood-color="#05070F" flood-opacity=".55"></feDropShadow>
</filter>
<clipPath id="faceclip"><circle cx="100" cy="98" r="86"></circle></clipPath>
</defs>
<g filter="url(#soft)">
<circle cx="100" cy="102" r="90" fill="url(#rim)"></circle>
<circle cx="100" cy="98" r="86" fill="url(#face)"></circle>
</g>
<circle cx="100" cy="98" r="79" fill="none" stroke="#FFFFFF" stroke-opacity=".07" stroke-width="2"></circle>
<g clip-path="url(#faceclip)">
<g opacity=".45" transform="translate(0,3.5)">
<circle fill="#080D1E" cx="100" cy="68" r="4.5"></circle>
<path fill="#080D1E" d="M54,100 Q100,66 146,100 L138,110 Q100,84 62,110 Z"></path>
<rect fill="#080D1E" x="72" y="112" width="10" height="26" rx="3"></rect>
<rect fill="#080D1E" x="95" y="112" width="10" height="26" rx="3"></rect>
<rect fill="#080D1E" x="118" y="112" width="10" height="26" rx="3"></rect></g>

<circle fill="#E0A458" cx="100" cy="68" r="4.5"></circle>
<path fill="#F4EFE6" d="M54,100 Q100,66 146,100 L138,110 Q100,84 62,110 Z"></path>
<rect fill="#F4EFE6" x="72" y="112" width="10" height="26" rx="3"></rect>
<rect fill="#F4EFE6" x="95" y="112" width="10" height="26" rx="3"></rect>
<rect fill="#F4EFE6" x="118" y="112" width="10" height="26" rx="3"></rect>
<ellipse cx="100" cy="48" rx="58" ry="22" fill="url(#gloss)"></ellipse>
</g>
</svg>