<svg xmlns="http://www.w3.org/2000/svg" width="200" height="200" viewBox="0 0 200 200">

<path fill="#FF6BB5" d="M78,52 Q72,62 78,70 Q84,78 78,86 L86,86 Q92,78 86,70 Q80,62 86,52 Z"></path>
<path fill="#FF6BB5" d="M104,52 Q98,62 104,70 Q110,78 104,86 L112,86 Q118,78 112,70 Q106,62 112,52 Z"></path>
<path fill="#1D2748" d="M58,96 L126,96 L120,148 L64,148 Z"></path>
<path fill="#1D2748" d="M126,100 A18,16 0 0 1 126,132 L122,120 A8,7 0 0 0 124,106 Z"></path>
<rect fill="#F4EFE6" x="66" y="104" width="52" height="9" rx="4.5"></rect>
</svg>