<svg xmlns="http://www.w3.org/2000/svg" width="200" height="200" viewBox="0 0 200 200">

<line x1="104.0" y1="74.0" x2="118.0" y2="74.0" stroke="#FFB830" stroke-width="9" stroke-linecap="round"></line><line x1="95.2" y1="95.2" x2="105.1" y2="105.1" stroke="#FFB830" stroke-width="9" stroke-linecap="round"></line><line x1="74.0" y1="104.0" x2="74.0" y2="118.0" stroke="#FFB830" stroke-width="9" stroke-linecap="round"></line><line x1="52.8" y1="95.2" x2="42.9" y2="105.1" stroke="#FFB830" stroke-width="9" stroke-linecap="round"></line><line x1="44.0" y1="74.0" x2="30.0" y2="74.0" stroke="#FFB830" stroke-width="9" stroke-linecap="round"></line><line x1="52.8" y1="52.8" x2="42.9" y2="42.9" stroke="#FFB830" stroke-width="9" stroke-linecap="round"></line><line x1="74.0" y1="44.0" x2="74.0" y2="30.0" stroke="#FFB830" stroke-width="9" stroke-linecap="round"></line><line x1="95.2" y1="52.8" x2="105.1" y2="42.9" stroke="#FFB830" stroke-width="9" stroke-linecap="round"></line>
<circle fill="#FFB830" cx="74" cy="74" r="24"></circle>
<circle fill="#FFFFFF" opacity="0.25" cx="66" cy="66" r="9"></circle>

<path fill="#C9CEDE" d="M64,132 A28,28 0 0 1 68,78 A34,34 0 0 1 132,80 A26,26 0 0 1 140,132 Z"></path>
<path fill="#FFFFFF" opacity="0.18" d="M70,86 A30,30 0 0 1 128,84 A24,24 0 0 1 130,92 A34,34 0 0 0 70,96 Z"></path>
</svg>