<svg xmlns="http://www.w3.org/2000/svg" width="200" height="200" viewBox="0 0 200 200">


<path fill="#C9CEDE" d="M64,132 A28,28 0 0 1 68,78 A34,34 0 0 1 132,80 A26,26 0 0 1 140,132 Z"></path>
<path fill="#FFFFFF" opacity="0.18" d="M70,86 A30,30 0 0 1 128,84 A24,24 0 0 1 130,92 A34,34 0 0 0 70,96 Z"></path>
<line x1="80" y1="140" x2="72" y2="160" stroke="#5BC0BE" stroke-width="9" stroke-linecap="round"></line>
<line x1="104" y1="140" x2="96" y2="164" stroke="#5BC0BE" stroke-width="9" stroke-linecap="round"></line>
<line x1="128" y1="140" x2="120" y2="160" stroke="#5BC0BE" stroke-width="9" stroke-linecap="round"></line>
</svg>